# Blender 4.0.2
# www.blender.org
o barbed_arrowhead
v -0.012122 0.024012 -0.000712
v -0.009998 0.028576 -0.000606
v -0.014694 0.006336 -0.001016
v -0.014685 0.012005 -0.000877
v -0.013802 0.018180 -0.000788
v -0.007086 0.033241 -0.000513
v -0.003544 0.036966 -0.000349
v 0.000000 0.039961 -0.000203
v -0.005000 0.024954 -0.001909
v -0.007047 0.020931 -0.001830
v -0.010451 0.010983 -0.001666
v -0.011606 0.006165 -0.001623
v -0.009009 0.016102 -0.001732
v 0.012122 0.024012 -0.000712
v 0.009998 0.028576 -0.000606
v 0.014694 0.006336 -0.001016
v 0.014685 0.012005 -0.000877
v 0.013802 0.018180 -0.000788
v 0.007086 0.033241 -0.000513
v -0.001816 0.028806 -0.001946
v 0.003544 0.036966 -0.000349
v 0.000000 0.000000 -0.004255
v -0.001628 0.000000 -0.003931
v -0.003009 0.000000 -0.003009
v -0.012122 0.024012 0.000712
v -0.009998 0.028576 0.000606
v -0.014694 0.006336 0.001016
v -0.014685 0.012005 0.000877
v -0.013802 0.018180 0.000788
v -0.007086 0.033241 0.000513
v -0.003544 0.036966 0.000349
v 0.000000 0.039961 0.000203
v -0.005000 0.024954 0.001909
v -0.007047 0.020931 0.001830
v -0.010451 0.010983 0.001666
v -0.011606 0.006165 0.001623
v -0.009009 0.016102 0.001732
v -0.003931 0.000000 -0.001628
v 0.005000 0.024954 -0.001909
v 0.007047 0.020931 -0.001830
v 0.010451 0.010983 -0.001666
v 0.011606 0.006165 -0.001623
v 0.009009 0.016102 -0.001732
v 0.001816 0.028806 -0.001946
v -0.001816 0.028806 0.001946
v 0.000000 0.000000 0.004255
v -0.001628 0.000000 0.003931
v -0.003009 0.000000 0.003009
v -0.003931 0.000000 0.001628
v -0.004255 0.000000 0.000000
v 0.001628 0.000000 -0.003931
v 0.000000 0.017946 0.003207
v -0.000922 0.021327 0.002816
v -0.002654 0.027230 0.001281
v -0.002866 0.026861 0.000000
v 0.000000 0.000000 0.000000
v 0.003009 0.000000 -0.003009
v 0.012122 0.024012 0.000712
v 0.009998 0.028576 0.000606
v 0.000000 0.029253 0.002188
v -0.015119 0.006336 0.000000
v -0.014201 0.018230 0.000000
v 0.000000 0.039961 0.000000
v -0.011044 0.006165 0.000000
v -0.008678 0.015949 0.000000
v -0.010198 0.028651 0.000000
v -0.015026 0.012005 0.000000
v -0.003544 0.036966 0.000000
v -0.004797 0.024853 0.000000
v -0.006818 0.020778 0.000000
v -0.010110 0.010983 0.000000
v -0.012495 0.024087 0.000000
v 0.014694 0.006336 0.001016
v 0.014685 0.012005 0.000877
v -0.003261 0.027500 0.001940
v -0.007051 0.033293 0.000000
v 0.013802 0.018180 0.000788
v -0.003224 0.026969 0.000000
v 0.000000 0.017946 -0.003207
v -0.000922 0.021327 -0.002816
v -0.002654 0.027230 -0.001281
v 0.007086 0.033241 0.000513
v 0.003544 0.036966 0.000349
v 0.000000 0.025936 0.002549
v -0.001563 0.026038 0.002282
v -0.003167 0.027228 0.001280
v -0.004043 0.026037 0.001164
v -0.002810 0.026177 0.000000
v -0.002521 0.026083 0.001116
v -0.004037 0.025865 0.000000
v 0.005000 0.024954 0.001909
v 0.007047 0.020931 0.001830
v 0.010451 0.010983 0.001666
v 0.011606 0.006165 0.001623
v 0.009009 0.016102 0.001732
v 0.003931 0.000000 -0.001628
v 0.001816 0.028806 0.001946
v 0.001628 0.000000 0.003931
v 0.003009 0.000000 0.003009
v 0.003931 0.000000 0.001628
v 0.004255 0.000000 0.000000
v 0.000922 0.021327 0.002816
v 0.002654 0.027230 0.001281
v 0.002866 0.026861 0.000000
v 0.000000 0.029253 -0.002188
v 0.015119 0.006336 0.000000
v 0.014201 0.018230 0.000000
v -0.012568 0.011494 0.001492
v -0.011240 0.017065 0.001510
v -0.013150 0.006250 0.001542
v -0.009470 0.022395 0.001442
v -0.007398 0.026715 0.001399
v -0.002680 0.032886 0.001198
v 0.000000 0.034607 0.001397
v -0.005173 0.030371 0.001320
v -0.013150 0.006250 0.000000
v 0.011044 0.006165 0.000000
v 0.008678 0.015949 0.000000
v 0.010198 0.028651 0.000000
v 0.015026 0.012005 0.000000
v 0.003544 0.036966 0.000000
v 0.004797 0.024853 0.000000
v -0.003261 0.027500 -0.001940
v 0.006818 0.020778 0.000000
v 0.010110 0.010983 0.000000
v 0.012495 0.024087 0.000000
v 0.003261 0.027500 0.001940
v 0.000000 0.025936 -0.002549
v -0.001563 0.026038 -0.002282
v 0.007051 0.033293 0.000000
v 0.003224 0.026969 0.000000
v 0.000922 0.021327 -0.002816
v 0.002654 0.027230 -0.001281
v 0.001563 0.026038 0.002282
v 0.003167 0.027228 0.001280
v -0.003167 0.027228 -0.001280
v -0.004043 0.026037 -0.001164
v -0.002521 0.026083 -0.001116
v 0.004043 0.026037 0.001164
v 0.002810 0.026177 0.000000
v 0.002521 0.026083 0.001116
v -0.012568 0.011494 -0.001492
v -0.011240 0.017065 -0.001510
v -0.013150 0.006250 -0.001542
v -0.009470 0.022395 -0.001442
v -0.007398 0.026715 -0.001399
v -0.002680 0.032886 -0.001198
v 0.000000 0.034607 -0.001397
v -0.005173 0.030371 -0.001320
v 0.004037 0.025865 0.000000
v 0.012568 0.011494 0.001492
v 0.011240 0.017065 0.001510
v 0.013150 0.006250 0.001542
v 0.009470 0.022395 0.001442
v 0.007398 0.026715 0.001399
v 0.002680 0.032886 0.001198
v 0.005173 0.030371 0.001320
v 0.013150 0.006250 0.000000
v 0.003261 0.027500 -0.001940
v 0.001563 0.026038 -0.002282
v 0.003167 0.027228 -0.001280
v 0.004043 0.026037 -0.001164
v 0.002521 0.026083 -0.001116
v 0.012568 0.011494 -0.001492
v 0.011240 0.017065 -0.001510
v 0.013150 0.006250 -0.001542
v 0.009470 0.022395 -0.001442
v 0.007398 0.026715 -0.001399
v 0.002680 0.032886 -0.001198
v 0.005173 0.030371 -0.001320
vn -0.8402 -0.5222 -0.1461
vn -0.7929 -0.5860 -0.1671
vn -0.5251 -0.7690 -0.3645
vn -0.6002 -0.6245 -0.4997
vn -0.4213 -0.6344 0.6481
vn -0.2156 -0.8263 0.5203
vn -0.5251 -0.7690 0.3645
vn -0.6002 -0.6245 0.4997
vn -0.8693 0.4943 -0.0000
vn -0.9334 0.3588 -0.0000
vn -0.8393 0.3303 0.4318
vn -0.8296 0.4754 0.2929
vn -0.6857 0.7279 -0.0000
vn -0.7789 0.6271 -0.0000
vn -0.7841 0.6116 0.1054
vn -0.6864 0.7272 0.0061
vn 0.9694 -0.2454 -0.0000
vn 0.9467 -0.3222 -0.0000
vn 0.9294 -0.3183 0.1867
vn 0.9439 -0.2372 0.2298
vn 0.9771 -0.2130 -0.0000
vn 0.9437 -0.2057 0.2591
vn -0.0481 -0.9988 -0.0000
vn -0.0465 -0.9989 -0.0000
vn -0.0465 -0.9989 -0.0083
vn -0.0479 -0.9989 -0.0011
vn 0.9123 -0.4096 -0.0000
vn 0.9007 -0.4064 0.1535
vn 0.8459 -0.5333 -0.0000
vn 0.8402 -0.5222 0.1461
vn -0.9123 -0.4096 -0.0000
vn -0.8459 -0.5333 -0.0000
vn -0.9007 -0.4064 -0.1535
vn -0.9467 -0.3222 -0.0000
vn -0.9294 -0.3183 0.1867
vn -0.9007 -0.4064 0.1535
vn 0.1440 0.0827 0.9861
vn 0.1245 0.0505 0.9909
vn 0.1745 0.0758 0.9817
vn 0.1741 0.1066 0.9789
vn 0.3515 0.0575 0.9344
vn 0.6645 0.0584 0.7450
vn 0.7424 0.0165 0.6697
vn 0.4685 0.0565 0.8817
vn 0.1737 0.0478 -0.9836
vn 0.1745 0.0758 -0.9817
vn 0.2155 0.1002 -0.9714
vn 0.2401 0.0703 -0.9682
vn 0.8693 0.4943 -0.0000
vn 0.8296 0.4754 0.2929
vn 0.8393 0.3303 0.4318
vn 0.9334 0.3588 -0.0000
vn 0.1208 -0.9927 -0.0000
vn -0.9781 0.2083 -0.0000
vn -0.9972 0.0754 -0.0000
vn -0.9175 0.0707 0.3914
vn -0.8804 0.1903 0.4344
vn 0.0977 0.0255 -0.9949
vn 0.1245 0.0505 -0.9909
vn 0.0497 -0.9988 -0.0000
vn 0.0481 -0.9988 -0.0000
vn 0.0479 -0.9989 0.0011
vn 0.0497 -0.9987 -0.0083
vn 0.9079 0.0579 0.4152
vn 0.9984 0.0567 -0.0000
vn 0.9993 -0.0375 -0.0000
vn 0.8943 -0.0107 0.4473
vn -0.7929 -0.5860 0.1671
vn -0.8033 -0.5955 -0.0000
vn -0.7973 -0.6036 -0.0000
vn 0.1563 0.1954 -0.9682
vn 0.1502 0.1896 -0.9703
vn 0.1460 0.1661 -0.9752
vn 0.1593 0.1787 -0.9709
vn 0.1460 0.1661 0.9752
vn 0.1434 0.1334 0.9806
vn 0.1339 0.1214 0.9835
vn 0.1516 0.1439 0.9779
vn -0.2156 -0.8263 -0.5203
vn -0.0000 0.0586 -0.9983
vn -0.3515 0.0575 -0.9344
vn -0.4685 0.0565 -0.8817
vn -0.8402 -0.5222 0.1461
vn 0.4685 0.0565 -0.8817
vn 0.3515 0.0575 -0.9344
vn -0.6455 0.7637 -0.0000
vn 0.0479 -0.9989 -0.0011
vn 0.0465 -0.9989 -0.0083
vn 0.0465 -0.9989 -0.0000
vn 0.0767 0.0134 -0.9970
vn 0.1811 0.0289 -0.9830
vn 0.2156 -0.8263 -0.5203
vn -0.1208 -0.9927 -0.0000
vn 0.5251 -0.7690 -0.3645
vn 0.1516 0.1439 -0.9779
vn 0.1339 0.1214 -0.9835
vn 0.1434 0.1334 -0.9806
vn 0.9294 -0.3183 -0.1867
vn 0.9007 -0.4064 -0.1535
vn 0.0465 -0.9989 0.0083
vn 0.2008 0.1286 0.9712
vn 0.1603 0.1632 0.9735
vn 0.0767 0.0134 0.9970
vn 0.1811 0.0289 0.9830
vn 0.1737 0.0478 0.9836
vn 0.0977 0.0255 0.9949
vn -0.0000 -1.0000 -0.0000
vn -0.1593 0.1787 -0.9709
vn -0.1625 0.1277 -0.9784
vn -0.1434 0.1334 -0.9806
vn -0.1460 0.1661 -0.9752
vn -0.9294 -0.3183 -0.1867
vn -0.9999 0.0139 -0.0000
vn -0.9268 0.0129 0.3754
vn -0.0479 -0.9989 0.0011
vn -0.0465 -0.9989 0.0083
vn -0.1516 0.1439 0.9779
vn -0.1603 0.1632 0.9735
vn -0.2008 0.1286 0.9712
vn -0.1741 0.1066 0.9789
vn -0.1737 0.0478 0.9836
vn -0.1745 0.0758 0.9817
vn -0.2155 0.1002 0.9714
vn -0.2401 0.0703 0.9682
vn -0.1811 0.0289 0.9830
vn -0.2729 0.0445 0.9610
vn -0.1850 0.0228 0.9825
vn -0.2927 0.0324 0.9557
vn -0.6864 0.7272 -0.0061
vn -0.7841 0.6116 -0.1054
vn 0.1603 0.1632 -0.9735
vn 0.2008 0.1286 -0.9712
vn 0.1741 0.1066 -0.9789
vn 0.1415 0.0853 0.9862
vn 0.1512 0.0969 0.9837
vn -0.0000 0.0962 0.9954
vn -0.0000 0.0862 0.9963
vn -0.9694 -0.2454 -0.0000
vn -0.9439 -0.2372 0.2298
vn -0.0000 0.0586 0.9983
vn -0.4685 0.0565 0.8817
vn -0.3515 0.0575 0.9344
vn -0.7424 0.0165 0.6697
vn -0.6645 0.0584 0.7450
vn -0.8943 -0.0107 0.4473
vn -0.9079 0.0579 0.4152
vn -0.9993 -0.0375 -0.0000
vn -0.9984 0.0567 -0.0000
vn 0.8804 0.1903 0.4344
vn 0.9781 0.2083 -0.0000
vn -0.1850 0.0228 -0.9825
vn -0.2927 0.0324 -0.9557
vn -0.2729 0.0445 -0.9610
vn -0.1811 0.0289 -0.9830
vn 0.6455 0.7637 -0.0000
vn 0.6857 0.7279 -0.0000
vn 0.6864 0.7272 -0.0061
vn 0.1625 0.1277 -0.9784
vn 0.0674 0.0122 -0.9977
vn 0.1850 0.0228 -0.9825
vn -0.1415 0.0853 0.9862
vn -0.1512 0.0969 0.9837
vn 0.1502 0.1896 0.9703
vn 0.7841 0.6116 -0.1054
vn 0.7789 0.6271 -0.0000
vn 0.8296 0.4754 -0.2929
vn 0.9972 0.0754 -0.0000
vn 0.9999 0.0139 -0.0000
vn 0.9268 0.0129 -0.3754
vn 0.9175 0.0707 -0.3914
vn -0.1593 0.1787 0.9709
vn -0.1460 0.1661 0.9752
vn -0.1434 0.1334 0.9806
vn -0.1625 0.1277 0.9784
vn -0.9925 -0.1219 -0.0000
vn -0.8137 -0.0656 -0.5776
vn -0.8943 -0.0107 -0.4473
vn 0.2401 0.0703 0.9682
vn 0.2155 0.1002 0.9714
vn 0.8402 -0.5222 -0.1461
vn 0.6002 -0.6245 -0.4997
vn 0.7929 -0.5860 -0.1671
vn 0.7424 0.0165 -0.6697
vn 0.6645 0.0584 -0.7450
vn -0.1339 0.1214 -0.9835
vn -0.1516 0.1439 -0.9779
vn -0.8296 0.4754 -0.2929
vn -0.8393 0.3303 -0.4318
vn 0.1440 0.0827 -0.9861
vn -0.1563 0.1954 -0.9682
vn -0.1502 0.1896 -0.9703
vn -0.6645 0.0584 -0.7450
vn -0.9079 0.0579 -0.4152
vn -0.7424 0.0165 -0.6697
vn 0.8393 0.3303 -0.4318
vn 0.9925 -0.1219 -0.0000
vn 0.8137 -0.0656 0.5776
vn -0.4213 -0.6344 -0.6481
vn 0.1593 0.1787 0.9709
vn 0.1625 0.1277 0.9784
vn 0.9439 -0.2372 -0.2298
vn 0.0674 0.0122 0.9977
vn 0.1850 0.0228 0.9825
vn 0.9437 -0.2057 -0.2591
vn 0.7841 0.6116 0.1054
vn 0.8804 0.1903 -0.4344
vn 0.9175 0.0707 0.3914
vn -0.0674 0.0122 -0.9977
vn -0.0767 0.0134 -0.9970
vn 0.6864 0.7272 0.0061
vn -0.1737 0.0478 -0.9836
vn -0.2401 0.0703 -0.9682
vn -0.2155 0.1002 -0.9714
vn -0.1745 0.0758 -0.9817
vn 0.1415 0.0853 -0.9862
vn -0.0000 0.0862 -0.9963
vn -0.0000 0.0962 -0.9954
vn 0.1512 0.0969 -0.9837
vn -0.1741 0.1066 -0.9789
vn -0.2008 0.1286 -0.9712
vn -0.1603 0.1632 -0.9735
vn 0.0497 -0.9987 0.0083
vn 0.7973 -0.6036 -0.0000
vn 0.7929 -0.5860 0.1671
vn 0.2729 0.0445 -0.9610
vn 0.8943 -0.0107 -0.4473
vn 0.9079 0.0579 -0.4152
vn -0.1512 0.0969 -0.9837
vn 0.1563 0.1954 0.9682
vn -0.1440 0.0827 -0.9861
vn -0.1245 0.0505 -0.9909
vn 0.4213 -0.6344 0.6481
vn 0.6002 -0.6245 0.4997
vn 0.5251 -0.7690 0.3645
vn 0.2156 -0.8263 0.5203
vn -0.6978 -0.0372 0.7153
vn -0.8137 -0.0656 0.5776
vn 0.8033 -0.5955 -0.0000
vn -0.0977 0.0255 -0.9949
vn -0.9175 0.0707 -0.3914
vn -0.9268 0.0129 -0.3754
vn -0.9771 -0.2130 -0.0000
vn -0.9439 -0.2372 -0.2298
vn -0.9437 -0.2057 -0.2591
vn -0.6978 -0.0372 -0.7153
vn -0.0497 -0.9988 -0.0000
vn -0.0497 -0.9987 -0.0083
vn -0.1339 0.1214 0.9835
vn -0.1502 0.1896 0.9703
vn 0.2927 0.0324 0.9557
vn 0.2729 0.0445 0.9610
vn 0.2927 0.0324 -0.9557
vn 0.6978 -0.0372 0.7153
vn 0.8137 -0.0656 -0.5776
vn 0.6978 -0.0372 -0.7153
vn 0.9268 0.0129 0.3754
vn -0.1563 0.1954 0.9682
vn -0.1440 0.0827 0.9861
vn -0.1245 0.0505 0.9909
vn -0.0674 0.0122 0.9977
vn -0.0767 0.0134 0.9970
vn -0.0977 0.0255 0.9949
vn -0.1415 0.0853 -0.9862
vn -0.9437 -0.2057 0.2591
vn -0.8804 0.1903 -0.4344
vn 0.4213 -0.6344 -0.6481
vn -0.0497 -0.9987 0.0083
vt 0.962098 0.556055
vt 0.948060 0.529966
vt 0.950163 0.502860
vt 0.962823 0.500387
vt 0.885833 0.467731
vt 0.904666 0.494179
vt 0.902877 0.503028
vt 0.890124 0.500655
vt 0.511946 0.965923
vt 0.605385 0.965368
vt 0.604249 0.980072
vt 0.511367 0.977791
vt 0.312250 0.966994
vt 0.407762 0.966502
vt 0.408977 0.976092
vt 0.312284 0.973597
vt 0.927884 0.369826
vt 0.927344 0.273856
vt 0.960064 0.272932
vt 0.959367 0.371139
vt 0.928370 0.460800
vt 0.960058 0.462735
vt 0.383973 0.033260
vt 0.422764 0.035283
vt 0.410873 0.064609
vt 0.382494 0.061642
vt 0.926803 0.178014
vt 0.960908 0.176918
vt 0.926351 0.093997
vt 0.961667 0.094062
vt 0.927272 0.640025
vt 0.926783 0.556003
vt 0.961377 0.638908
vt 0.927890 0.735874
vt 0.895156 0.735355
vt 0.893148 0.639329
vt 0.194417 0.283627
vt 0.154894 0.356934
vt 0.110395 0.328728
vt 0.150190 0.249888
vt 0.309530 0.863596
vt 0.278999 0.865293
vt 0.266711 0.384933
vt 0.287091 0.470670
vt 0.391428 0.497919
vt 0.426226 0.595427
vt 0.376595 0.627017
vt 0.343105 0.520208
vt 0.426983 0.936495
vt 0.427698 0.948357
vt 0.334855 0.951739
vt 0.333540 0.937050
vt 0.926538 0.500796
vt 0.926557 0.507279
vt 0.716124 0.964681
vt 0.830343 0.963941
vt 0.829987 0.981131
vt 0.715606 0.980803
vt 0.432286 0.479076
vt 0.470725 0.567221
vt 0.505784 0.031370
vt 0.469505 0.033262
vt 0.468025 0.004883
vt 0.496984 0.013081
vt 0.248437 0.866308
vt 0.217858 0.866651
vt 0.217590 0.383473
vt 0.239000 0.384744
vt 0.905222 0.530170
vt 0.926662 0.532571
vt 0.604258 0.918106
vt 0.538372 0.863677
vt 0.554285 0.786958
vt 0.604213 0.817408
vt 0.238455 0.137196
vt 0.254427 0.213567
vt 0.227438 0.237320
vt 0.192227 0.183180
vt 0.948335 0.494063
vt 0.539216 0.010359
vt 0.569698 0.007937
vt 0.592150 0.400856
vt 0.569197 0.340102
vt 0.891445 0.556449
vt 0.095695 0.861313
vt 0.125292 0.531523
vt 0.148175 0.470739
vt 0.126181 0.863700
vt 0.224118 0.967390
vt 0.224133 0.971239
vt 0.470984 0.061641
vt 0.442608 0.064608
vt 0.430717 0.035284
vt 0.403097 0.385399
vt 0.364191 0.395911
vt 0.904239 0.032163
vt 0.926120 0.038783
vt 0.926137 0.045268
vt 0.902454 0.041016
vt 0.508058 0.740973
vt 0.543268 0.686835
vt 0.570257 0.710588
vt 0.894615 0.273301
vt 0.892684 0.177297
vt 0.439494 0.004883
vt 0.101432 0.213649
vt 0.156546 0.128511
vt 0.087266 0.538757
vt 0.048359 0.528245
vt 0.075597 0.426236
vt 0.116455 0.445080
vt 0.081779 0.081776
vt 0.146971 0.038217
vt 0.158678 0.066480
vt 0.158678 0.097073
vt 0.604175 0.718167
vt 0.638087 0.710565
vt 0.654116 0.786918
vt 0.960609 0.734915
vt 0.934032 0.963238
vt 0.934032 0.983451
vt 0.385453 0.004879
vt 0.413987 0.004879
vt 0.384472 0.183254
vt 0.420194 0.128623
vt 0.475224 0.213792
vt 0.426447 0.249981
vt 0.500868 0.426327
vt 0.466166 0.328829
vt 0.515806 0.297292
vt 0.549191 0.404090
vt 0.528006 0.528310
vt 0.568311 0.517510
vt 0.541268 0.624675
vt 0.571273 0.622042
vt 0.312220 0.960391
vt 0.408875 0.956900
vt 0.472377 0.795642
vt 0.417263 0.710506
vt 0.466021 0.674266
vt 0.271130 0.352611
vt 0.259096 0.265084
vt 0.288325 0.267448
vt 0.288276 0.415390
vt 0.928562 0.831851
vt 0.897097 0.833565
vt 0.783534 0.010190
vt 0.753948 0.339996
vt 0.731066 0.400782
vt 0.753046 0.007810
vt 0.710784 0.486545
vt 0.722512 0.006154
vt 0.683065 0.486761
vt 0.691948 0.005180
vt 0.661654 0.488050
vt 0.661369 0.004879
vt 0.223519 0.953850
vt 0.222797 0.937736
vt 0.857096 0.299482
vt 0.887101 0.302115
vt 0.884139 0.406646
vt 0.843834 0.395846
vt 0.714823 0.935028
vt 0.626688 0.935424
vt 0.626653 0.928821
vt 0.714809 0.931179
vt 0.004880 0.066480
vt 0.016587 0.038217
vt 0.038219 0.016585
vt 0.379306 0.297144
vt 0.350835 0.299509
vt 0.305463 0.352623
vt 0.317555 0.265103
vt 0.222541 0.060476
vt 0.529956 0.926325
vt 0.531171 0.935916
vt 0.427562 0.924626
vt 0.108573 0.938477
vt 0.004880 0.939179
vt 0.004880 0.918966
vt 0.108929 0.921286
vt 0.288384 0.106746
vt 0.338286 0.137236
vt 0.322257 0.213589
vt 0.288345 0.205987
vt 0.661656 0.500271
vt 0.639057 0.507899
vt 0.640244 0.486779
vt 0.027272 0.403948
vt 0.060764 0.297138
vt 0.891017 0.094431
vt 0.889700 0.038648
vt 0.904797 0.068159
vt 0.168459 0.384978
vt 0.156714 0.865362
vt 0.665056 0.686798
vt 0.700301 0.740901
vt 0.511231 0.954062
vt 0.604071 0.950680
vt 0.510248 0.640528
vt 0.670094 0.863619
vt 0.600228 0.006239
vt 0.630789 0.005222
vt 0.612533 0.486591
vt 0.334677 0.922345
vt 0.217587 0.371251
vt 0.240188 0.363624
vt 0.966840 0.467731
vt 0.896421 0.371484
vt 0.063474 0.627013
vt 0.035004 0.624648
vt 0.896710 0.463058
vt 0.530059 0.945518
vt 0.223315 0.921614
vt 0.066483 0.158676
vt 0.038219 0.146968
vt 0.016587 0.125336
vt 0.109156 0.955661
vt 0.828639 0.297144
vt 0.804938 0.385372
vt 0.714838 0.938878
vt 0.626717 0.942028
vt 0.816697 0.497829
vt 0.865019 0.520066
vt 0.831635 0.626863
vt 0.781994 0.595327
vt 0.586961 0.571544
vt 0.604106 0.508765
vt 0.604155 0.656707
vt 0.574927 0.659070
vt 0.742276 0.674174
vt 0.791053 0.710362
vt 0.736023 0.795531
vt 0.498934 0.050476
vt 0.926237 0.070564
vt 0.947637 0.067966
vt 0.323876 0.406753
vt 0.196178 0.384762
vt 0.187278 0.866343
vt 0.633384 0.659051
vt 0.288428 0.006047
vt 0.698035 0.640478
vt 0.737490 0.567166
vt 0.224103 0.963541
vt 0.966442 0.005725
vt 0.962412 0.038386
vt 0.949749 0.040855
vt 0.947924 0.032056
vt 0.703399 0.536150
vt 0.684265 0.507889
vt 0.775842 0.479028
vt 0.829760 0.946758
vt 0.933753 0.943030
vt 0.929249 0.922825
vt 0.960044 0.833107
vt 0.960935 0.924674
vt 0.619959 0.536150
vt 0.347691 0.031368
vt 0.356491 0.013078
vt 0.349226 0.237356
vt 0.354265 0.060534
vt 0.004985 0.621986
vt 0.008043 0.517403
vt 0.320818 0.302170
vt 0.125339 0.146968
vt 0.097075 0.158676
vt 0.259288 0.335373
vt 0.194976 0.363632
vt 0.175838 0.335373
vt 0.005158 0.959388
vt 0.004880 0.097073
vt 0.382206 0.283676
vt 0.421660 0.356989
vt 0.512810 0.627013
vt 0.489109 0.538784
vt 0.460013 0.445128
vt 0.621293 0.571532
vt 0.146971 0.125336
vt 0.897590 0.925170
vt 0.715402 0.948568
vt 0.885380 0.005725
vt 0.340012 0.861175
vt 0.310043 0.531426
vt 0.354541 0.050475
vt 0.097075 0.004877
vt 0.066482 0.004877
vt 0.125339 0.016585
s 1
f 39/1/1 162/2/2 161/3/3 159/4/4
f 97/5/5 103/6/6 135/7/7 127/8/8
f 66/9/9 72/10/10 25/11/11 26/12/12
f 68/13/13 76/14/14 30/15/15 31/16/16
f 71/17/17 65/18/18 37/19/19 35/20/20
f 64/21/21 71/17/17 35/20/20 36/22/22
f 116/23/23 64/24/24 36/25/25 110/26/26
f 65/18/18 70/27/27 34/28/28 37/19/19
f 70/27/27 69/29/29 33/30/30 34/28/28
f 124/31/31 122/32/32 39/1/1 40/33/33
f 118/34/34 95/35/35 92/36/36 124/31/31
f 91/37/37 92/38/38 154/39/39 155/40/40
f 98/41/41 99/42/42 134/43/43 102/44/44
f 165/45/45 167/46/46 14/47/47 18/48/48
f 119/49/49 59/50/50 58/51/51 126/52/52
f 103/6/6 104/53/53 131/54/53 135/7/7
f 62/55/54 67/56/55 28/57/56 29/58/57
f 43/59/58 40/60/59 167/46/46 165/45/45
f 106/61/60 158/62/61 166/63/62 16/64/63
f 100/65/64 101/66/65 140/67/66 141/68/67
f 139/69/68 135/7/7 131/54/69 150/70/70
f 8/71/71 21/72/72 169/73/73 148/74/74
f 156/75/75 97/76/76 127/77/77 157/78/78
f 133/79/79 161/3/3 131/54/53 104/53/53
f 22/80/80 23/81/81 80/82/82 79/83/80
f 99/42/42 100/65/64 141/68/67 134/43/43
f 122/32/32 91/84/83 139/69/68 150/70/70
f 22/85/80 79/86/80 132/87/84 51/88/85
f 63/89/86 68/13/13 31/16/16 32/90/86
f 158/62/61 153/91/87 94/92/88 117/93/89
f 41/94/90 43/59/58 165/45/45 164/95/91
f 81/96/92 55/97/93 78/98/93 136/99/94
f 169/73/73 170/100/95 159/101/96 44/102/97
f 65/18/18 13/103/98 10/104/99 70/27/27
f 158/62/61 117/93/89 42/105/100 166/63/62
f 157/78/78 155/40/40 59/106/101 82/107/102
f 93/108/103 151/109/104 152/110/105 95/111/106
f 56/112/107 24/113/107 23/114/107 22/115/107
f 148/74/108 105/116/109 20/117/110 147/118/111
f 118/34/34 124/31/31 40/33/33 43/119/112
f 67/56/55 61/120/113 27/121/114 28/57/56
f 116/23/23 144/122/115 12/123/116 64/24/24
f 115/124/117 30/125/118 26/126/119 112/127/120
f 109/128/121 111/129/122 25/130/123 29/131/124
f 108/132/125 109/128/121 29/131/124 28/133/126
f 110/134/127 108/132/125 28/133/126 27/135/128
f 112/127/120 26/126/119 25/130/123 111/129/122
f 68/13/13 7/136/129 6/137/130 76/14/14
f 170/100/95 19/138/131 15/139/132 168/140/133
f 102/141/134 134/142/135 84/143/136 52/144/137
f 125/145/138 93/146/139 95/35/35 118/34/34
f 46/147/140 52/148/140 53/149/141 47/150/142
f 47/150/142 53/149/141 85/151/143 48/152/144
f 48/152/144 85/151/143 89/153/145 49/154/146
f 49/154/146 89/153/145 88/155/147 50/156/148
f 58/51/51 77/157/149 107/158/150 126/52/52
f 144/159/151 3/160/152 4/161/153 142/162/154
f 63/163/155 121/164/156 21/165/157 8/166/155
f 148/74/74 169/73/73 44/102/97 105/116/158
f 56/112/107 46/167/107 47/168/107 48/169/107
f 42/170/159 41/94/90 164/95/91 166/171/160
f 53/172/161 52/144/137 84/143/136 85/173/162
f 83/174/163 156/75/75 157/78/78 82/107/102
f 19/175/164 130/176/165 119/49/49 15/177/166
f 120/178/167 106/179/168 16/180/169 17/181/170
f 114/182/171 113/183/172 45/184/173 60/185/174
f 88/155/147 55/186/175 81/187/176 138/188/177
f 152/110/105 77/189/178 58/190/179 154/39/39
f 9/191/180 123/192/181 136/99/94 137/193/182
f 51/88/85 132/87/84 160/194/183 57/195/184
f 147/118/111 20/117/110 123/196/185 149/197/186
f 66/9/9 2/198/187 1/199/188 72/10/10
f 39/200/189 168/140/133 167/46/46 40/60/59
f 155/40/40 154/39/39 58/190/179 59/106/101
f 8/71/190 148/74/108 147/118/111 7/201/191
f 121/164/156 130/176/165 19/175/164 21/165/157
f 30/15/15 76/14/14 66/9/9 26/12/12
f 24/202/192 38/203/193 138/188/177 129/204/194
f 119/49/49 126/52/52 14/205/195 15/177/166
f 140/67/66 104/206/196 103/207/197 141/68/67
f 44/208/198 159/4/4 161/3/3 133/79/79
f 114/182/199 60/185/200 97/76/76 156/75/75
f 134/142/135 97/76/76 60/185/200 84/143/136
f 23/81/81 24/202/192 129/204/194 80/82/82
f 71/17/17 11/209/201 13/103/98 65/18/18
f 94/210/202 153/211/203 151/109/104 93/108/103
f 64/21/21 12/212/204 11/209/201 71/17/17
f 82/213/205 59/50/50 119/49/49 130/176/165
f 25/11/11 72/10/10 62/55/54 29/58/57
f 14/205/195 126/52/52 107/158/150 18/214/206
f 101/215/107 100/216/107 99/217/107 56/112/107
f 107/158/150 120/178/167 17/181/170 18/214/206
f 107/158/150 77/157/149 74/218/207 120/178/167
f 12/219/208 144/159/151 142/162/154 11/220/209
f 63/163/155 32/221/155 83/222/210 121/164/156
f 143/223/211 5/224/212 1/225/213 145/226/214
f 38/203/193 50/156/148 88/155/147 138/188/177
f 132/227/215 79/228/216 128/229/217 160/230/218
f 149/197/186 146/231/219 2/232/220 6/233/221
f 106/61/60 73/234/222 153/91/87 158/62/61
f 160/230/218 128/229/217 105/116/158 44/102/97
f 124/31/31 92/36/36 91/84/83 122/32/32
f 142/162/154 4/161/153 5/224/212 143/223/211
f 69/29/29 90/235/223 87/236/224 33/30/30
f 164/95/91 165/45/45 18/48/48 17/237/225
f 57/195/184 160/194/183 163/238/226 96/239/227
f 129/240/228 20/117/110 105/116/109 128/229/217
f 32/241/229 114/182/199 156/75/75 83/174/163
f 9/242/230 10/243/231 145/226/214 146/231/219
f 21/72/72 19/138/131 170/100/95 169/73/73
f 63/89/86 8/244/86 7/136/129 68/13/13
f 159/101/96 170/100/95 168/140/133 39/200/189
f 85/173/162 84/143/136 60/185/174 45/184/173
f 45/245/232 75/246/233 86/247/234 54/248/235
f 89/153/145 85/151/143 45/249/236 54/250/237
f 54/248/235 86/247/234 78/98/93 55/97/93
f 33/30/30 87/236/224 86/247/234 75/246/233
f 88/155/147 89/153/145 54/250/237 55/186/175
f 87/236/224 90/235/223 78/98/238 86/247/234
f 11/220/209 142/162/154 143/223/211 13/251/239
f 91/84/83 127/8/8 135/7/7 139/69/68
f 70/27/27 10/104/99 9/191/180 69/29/29
f 67/56/55 4/252/240 3/253/241 61/120/113
f 146/231/219 145/226/214 1/225/213 2/232/220
f 117/254/242 125/145/138 41/255/243 42/256/244
f 138/188/177 81/187/176 20/257/245 129/204/194
f 162/2/2 150/70/70 131/54/69 161/3/3
f 13/251/239 143/223/211 145/226/214 10/243/231
f 137/193/182 136/99/94 78/98/238 90/235/223
f 127/77/77 91/37/37 155/40/40 157/78/78
f 61/258/246 3/259/247 144/122/115 116/23/23
f 113/183/172 115/124/117 75/260/248 45/184/173
f 31/261/249 30/125/118 115/124/117 113/183/172
f 7/201/191 147/118/111 149/197/186 6/233/221
f 69/29/29 9/191/180 137/193/182 90/235/223
f 96/239/227 163/238/226 140/67/66 101/66/65
f 95/111/106 152/110/105 154/39/39 92/38/38
f 153/211/203 73/262/250 74/263/251 151/109/104
f 166/171/160 164/95/91 17/237/225 16/264/252
f 101/215/107 56/112/107 57/265/107 96/266/107
f 141/68/67 103/207/197 97/267/253 134/43/43
f 140/67/66 163/238/226 133/268/254 104/206/196
f 163/238/226 160/194/183 44/269/255 133/268/254
f 122/32/32 150/70/70 162/2/2 39/1/1
f 120/178/167 74/218/207 73/270/256 106/179/168
f 32/241/257 31/261/249 113/183/172 114/182/171
f 151/109/104 74/263/251 77/189/178 152/110/105
f 56/112/107 99/217/107 98/271/107 46/167/107
f 168/140/133 15/139/132 14/47/47 167/46/46
f 33/272/258 112/127/120 111/129/122 34/273/259
f 36/274/260 35/275/261 108/132/125 110/134/127
f 35/275/261 37/276/262 109/128/121 108/132/125
f 37/276/262 34/273/259 111/129/122 109/128/121
f 75/260/248 115/124/117 112/127/120 33/272/258
f 80/277/263 129/240/228 128/229/217 79/228/216
f 56/112/107 22/115/107 51/278/107 57/265/107
f 123/196/185 9/242/230 146/231/219 149/197/186
f 117/254/242 94/279/264 93/146/139 125/145/138
f 1/199/188 5/280/265 62/55/54 72/10/10
f 20/281/266 81/96/92 136/99/94 123/192/181
f 6/137/130 2/198/187 66/9/9 76/14/14
f 62/55/54 5/280/265 4/252/240 67/56/55
f 46/282/140 98/41/41 102/44/44 52/283/140
f 61/258/246 116/23/23 110/26/26 27/284/267
f 121/164/156 83/222/210 82/213/205 130/176/165
f 50/285/107 56/112/107 48/169/107 49/286/107
f 50/285/107 38/287/107 24/113/107 56/112/107
f 125/145/138 118/34/34 43/119/112 41/255/243
