# Blender 4.4.3
# www.blender.org
o Cylinder
v 0.345746 0.000000 0.000000
v 0.000000 -0.000000 -4.000000
v 0.244480 0.244480 0.000000
v 0.000000 0.345746 -0.000000
v -0.244480 0.244480 -0.000000
v -0.345746 0.000000 -0.000000
v -0.244480 -0.244480 0.000000
v -0.000000 -0.345746 0.000000
v 0.244480 -0.244480 0.000000
v 1.000000 -0.000000 -2.776000
v 0.980785 0.195090 -2.776000
v 0.923880 0.382683 -2.776000
v 0.831470 0.555570 -2.776000
v 0.707107 0.707107 -2.776000
v 0.555570 0.831469 -2.776000
v 0.382684 0.923879 -2.776000
v 0.195090 0.980785 -2.776000
v 0.000000 1.000000 -2.776000
v -0.195090 0.980785 -2.776000
v -0.382683 0.923879 -2.776000
v -0.555570 0.831469 -2.776000
v -0.707107 0.707107 -2.776000
v -0.831469 0.555570 -2.776000
v -0.923879 0.382683 -2.776000
v -0.980785 0.195090 -2.776000
v -1.000000 -0.000000 -2.776000
v -0.980785 -0.195090 -2.776000
v -0.923879 -0.382684 -2.776000
v -0.831469 -0.555570 -2.776000
v -0.707107 -0.707107 -2.776000
v -0.555570 -0.831470 -2.776000
v -0.382683 -0.923880 -2.776000
v -0.195090 -0.980785 -2.776000
v 0.000000 -1.000000 -2.776000
v 0.195090 -0.980785 -2.776000
v 0.382684 -0.923880 -2.776000
v 0.555570 -0.831470 -2.776000
v 0.707107 -0.707107 -2.776000
v 0.831470 -0.555570 -2.776000
v 0.923880 -0.382684 -2.776000
v 0.980785 -0.195090 -2.776000
v 0.339103 0.067452 -2.776000
v 0.287478 0.192086 -2.776000
v 0.192087 0.287477 -2.776000
v 0.067452 0.339103 -2.776000
v -0.067452 0.339103 -2.776000
v -0.192086 0.287477 -2.776000
v -0.287477 0.192086 -2.776000
v -0.339103 0.067452 -2.776000
v -0.339103 -0.067452 -2.776000
v -0.287477 -0.192087 -2.776000
v -0.192086 -0.287478 -2.776000
v -0.067452 -0.339103 -2.776000
v 0.067452 -0.339103 -2.776000
v 0.192087 -0.287478 -2.776000
v 0.287478 -0.192087 -2.776000
v 0.339103 -0.067452 -2.776000
vn 0.7722 0.0761 -0.6309
vn 0.7425 0.2252 -0.6309
vn 0.6843 0.3658 -0.6309
vn 0.5998 0.4922 -0.6309
vn 0.4922 0.5998 -0.6309
vn 0.3658 0.6843 -0.6309
vn 0.2252 0.7425 -0.6309
vn 0.0761 0.7722 -0.6309
vn -0.0761 0.7722 -0.6309
vn -0.2252 0.7425 -0.6309
vn -0.3658 0.6843 -0.6309
vn -0.4922 0.5998 -0.6309
vn -0.5998 0.4922 -0.6309
vn -0.6843 0.3658 -0.6309
vn -0.7425 0.2252 -0.6309
vn -0.7722 0.0761 -0.6309
vn -0.7722 -0.0761 -0.6309
vn -0.7425 -0.2252 -0.6309
vn -0.6843 -0.3658 -0.6309
vn -0.5998 -0.4922 -0.6309
vn -0.4922 -0.5998 -0.6309
vn -0.3658 -0.6843 -0.6309
vn -0.2252 -0.7425 -0.6309
vn -0.0761 -0.7722 -0.6309
vn 0.0761 -0.7722 -0.6309
vn 0.2252 -0.7425 -0.6309
vn 0.3658 -0.6843 -0.6309
vn 0.4922 -0.5998 -0.6309
vn 0.5998 -0.4922 -0.6309
vn 0.6843 -0.3658 -0.6309
vn 0.7425 -0.2252 -0.6309
vn 0.7722 -0.0761 -0.6309
vn -0.0000 -0.0000 1.0000
vn 0.9239 -0.3827 0.0071
vn 0.3827 -0.9239 0.0071
vn -0.3827 -0.9239 0.0071
vn -0.9239 -0.3827 0.0071
vn -0.9239 0.3827 0.0071
vn -0.3827 0.9239 0.0071
vn 0.9239 0.3827 0.0071
vn 0.3827 0.9239 0.0071
vn -0.0000 -1.0000 -0.0024
vn -0.7071 -0.7071 -0.0024
vn -1.0000 -0.0000 -0.0024
vn -0.7071 0.7071 -0.0024
vn -0.0000 1.0000 -0.0024
vn 0.7071 0.7071 -0.0024
vn 1.0000 -0.0000 -0.0024
vn 0.7071 -0.7071 -0.0024
vt 1.000000 0.847000
vt 0.968750 1.000000
vt 0.968750 0.847000
vt 0.937500 1.000000
vt 0.937500 0.847000
vt 0.906250 1.000000
vt 0.906250 0.847000
vt 0.875000 1.000000
vt 0.875000 0.847000
vt 0.843750 1.000000
vt 0.843750 0.847000
vt 0.812500 1.000000
vt 0.812500 0.847000
vt 0.781250 1.000000
vt 0.781250 0.847000
vt 0.750000 1.000000
vt 0.750000 0.847000
vt 0.718750 1.000000
vt 0.718750 0.847000
vt 0.687500 1.000000
vt 0.687500 0.847000
vt 0.656250 1.000000
vt 0.656250 0.847000
vt 0.625000 1.000000
vt 0.625000 0.847000
vt 0.593750 1.000000
vt 0.593750 0.847000
vt 0.562500 1.000000
vt 0.562500 0.847000
vt 0.531250 1.000000
vt 0.531250 0.847000
vt 0.500000 1.000000
vt 0.500000 0.847000
vt 0.468750 1.000000
vt 0.468750 0.847000
vt 0.437500 1.000000
vt 0.437500 0.847000
vt 0.406250 1.000000
vt 0.406250 0.847000
vt 0.375000 1.000000
vt 0.375000 0.847000
vt 0.343750 1.000000
vt 0.343750 0.847000
vt 0.312500 1.000000
vt 0.312500 0.847000
vt 0.281250 1.000000
vt 0.281250 0.847000
vt 0.250000 1.000000
vt 0.250000 0.847000
vt 0.218750 1.000000
vt 0.218750 0.847000
vt 0.187500 1.000000
vt 0.187500 0.847000
vt 0.156250 1.000000
vt 0.156250 0.847000
vt 0.125000 1.000000
vt 0.125000 0.847000
vt 0.093750 1.000000
vt 0.093750 0.847000
vt 0.062500 1.000000
vt 0.062500 0.847000
vt 0.031250 1.000000
vt 0.031250 0.847000
vt 0.000000 1.000000
vt 0.000000 0.847000
vt 0.750000 0.490000
vt 0.919706 0.419706
vt 0.990000 0.250000
vt 0.919706 0.080294
vt 0.750000 0.010000
vt 0.580294 0.080294
vt 0.510000 0.250000
vt 0.580294 0.419706
vt 0.125000 0.500000
vt 0.250000 0.500000
vt 0.375000 0.500000
vt 0.500000 0.500000
vt 0.625000 0.500000
vt 0.750000 0.500000
vt 1.000000 0.500000
vt 0.875000 0.500000
s 0
f 10/1/1 2/2/1 11/3/1
f 11/3/2 2/4/2 12/5/2
f 12/5/3 2/6/3 13/7/3
f 13/7/4 2/8/4 14/9/4
f 14/9/5 2/10/5 15/11/5
f 15/11/6 2/12/6 16/13/6
f 16/13/7 2/14/7 17/15/7
f 17/15/8 2/16/8 18/17/8
f 18/17/9 2/18/9 19/19/9
f 19/19/10 2/20/10 20/21/10
f 20/21/11 2/22/11 21/23/11
f 21/23/12 2/24/12 22/25/12
f 22/25/13 2/26/13 23/27/13
f 23/27/14 2/28/14 24/29/14
f 24/29/15 2/30/15 25/31/15
f 25/31/16 2/32/16 26/33/16
f 26/33/17 2/34/17 27/35/17
f 27/35/18 2/36/18 28/37/18
f 28/37/19 2/38/19 29/39/19
f 29/39/20 2/40/20 30/41/20
f 30/41/21 2/42/21 31/43/21
f 31/43/22 2/44/22 32/45/22
f 32/45/23 2/46/23 33/47/23
f 33/47/24 2/48/24 34/49/24
f 34/49/25 2/50/25 35/51/25
f 35/51/26 2/52/26 36/53/26
f 36/53/27 2/54/27 37/55/27
f 37/55/28 2/56/28 38/57/28
f 38/57/29 2/58/29 39/59/29
f 39/59/30 2/60/30 40/61/30
f 40/61/31 2/62/31 41/63/31
f 41/63/32 2/64/32 10/65/32
f 12/5/33 43/7/33 42/3/33
f 10/1/33 11/3/33 42/3/33
f 40/61/33 41/63/33 57/63/33
f 38/57/33 39/59/33 56/59/33
f 36/53/33 37/55/33 55/55/33
f 34/49/33 35/51/33 54/51/33
f 1/66/33 3/67/33 4/68/33 5/69/33 6/70/33 7/71/33 8/72/33 9/73/33
f 32/45/33 33/47/33 53/47/33
f 30/41/33 31/43/33 52/43/33
f 9/74/34 56/59/34 57/63/34 1/66/34
f 28/37/33 29/39/33 51/39/33
f 26/33/33 27/35/33 50/35/33
f 8/75/35 54/51/35 55/55/35 9/73/35
f 24/29/33 25/31/33 49/31/33
f 22/25/33 23/27/33 48/27/33
f 7/76/36 52/43/36 53/47/36 8/72/36
f 20/21/33 21/23/33 47/23/33
f 18/17/33 19/19/33 46/19/33
f 6/77/37 50/35/37 51/39/37 7/71/37
f 16/13/33 17/15/33 45/15/33
f 14/9/33 15/11/33 44/11/33
f 5/78/38 48/27/38 49/31/38 6/70/38
f 44/11/33 15/11/33 16/13/33
f 45/15/33 17/15/33 18/17/33
f 46/19/33 19/19/33 20/21/33
f 47/23/33 21/23/33 22/25/33
f 48/27/33 23/27/33 24/29/33
f 49/31/33 25/31/33 26/33/33
f 50/35/33 27/35/33 28/37/33
f 51/39/33 29/39/33 30/41/33
f 52/43/33 31/43/33 32/45/33
f 53/47/33 33/47/33 34/49/33
f 54/51/33 35/51/33 36/53/33
f 55/55/33 37/55/33 38/57/33
f 4/79/39 46/19/39 47/23/39 5/69/39
f 56/59/33 39/59/33 40/61/33
f 42/3/33 11/3/33 12/5/33
f 57/63/33 41/63/33 10/65/33
f 1/80/40 42/3/40 43/7/40 3/67/40
f 3/81/41 44/11/41 45/15/41 4/68/41
f 43/7/33 13/7/33 14/9/33
f 12/5/33 13/7/33 43/7/33
f 40/61/33 57/63/33 56/59/33
f 36/53/33 55/55/33 54/51/33
f 32/45/33 53/47/33 52/43/33
f 28/37/33 51/39/33 50/35/33
f 24/29/33 49/31/33 48/27/33
f 20/21/33 47/23/33 46/19/33
f 16/13/33 45/15/33 44/11/33
f 8/72/42 53/47/42 54/51/42
f 7/71/43 51/39/43 52/43/43
f 6/70/44 49/31/44 50/35/44
f 5/69/45 47/23/45 48/27/45
f 4/68/46 45/15/46 46/19/46
f 3/67/47 43/7/47 44/11/47
f 1/80/48 57/63/48 42/3/48
f 9/73/49 55/55/49 56/59/49
f 34/49/33 54/51/33 53/47/33
f 30/41/33 52/43/33 51/39/33
f 26/33/33 50/35/33 49/31/33
f 22/25/33 48/27/33 47/23/33
f 18/17/33 46/19/33 45/15/33
f 14/9/33 44/11/33 43/7/33
f 10/1/33 42/3/33 57/63/33
f 38/57/33 56/59/33 55/55/33
