# Blender 4.3.2
# www.blender.org
o Plane
v -0.086722 2.426064 -0.185741
v 0.000000 0.000000 0.372960
v 0.000000 0.000000 -0.256260
v 0.045862 1.333333 0.224508
v 0.045862 1.333333 -0.096773
v 0.052632 0.692543 0.308665
v 0.052632 0.692543 -0.165206
v -0.028087 1.833333 -0.145880
v -0.028087 1.833333 0.098308
v 0.068697 0.000000 0.058350
v 0.082509 1.333333 0.063868
v 0.102027 0.692543 0.071730
v -0.000445 1.833333 -0.023786
vn 0.9896 0.1440 -0.0000
vn 0.9765 -0.0529 0.2091
vn 0.9769 -0.0449 -0.2092
vn 0.9707 0.1075 0.2148
vn 0.9734 0.0763 -0.2160
vn 0.9776 -0.0121 0.2103
vn 0.9776 -0.0103 -0.2103
vn 0.9855 0.1345 -0.1031
vn 0.9753 0.1769 0.1324
vn 0.9987 -0.0499 -0.0026
vn 0.9950 0.0996 0.0105
vn 1.0000 -0.0083 0.0021
vn 0.9883 0.1522 -0.0133
vt 0.750000 0.500000
vt 1.000000 0.500000
vt 1.000000 1.000000
vt 0.750000 1.000000
vt 0.250000 0.500000
vt 0.500000 0.500000
vt 0.500000 1.000000
vt 0.250000 1.000000
vt 0.000000 0.000000
vt 0.250000 0.000000
vt 0.500000 0.000000
vt 0.750000 0.000000
vt 1.000000 0.000000
s 1
f 12/1/12 10/2/10 3/3/3 7/4/7
f 13/5/13 11/6/11 5/7/5 8/8/8
f 11/6/11 12/1/12 7/4/7 5/7/5
f 1/9/1 9/10/9 13/5/13 8/8/8
f 4/11/4 6/12/6 12/1/12 11/6/11
f 9/10/9 4/11/4 11/6/11 13/5/13
f 6/12/6 2/13/2 10/2/10 12/1/12
l 1 13
